<svg width="505" height="216" viewBox="0 0 505 216" fill="none" xmlns="http://www.w3.org/2000/svg">
<path d="M13.4424 73.4924C26.6454 58.2195 44.316 57.1382 48.2473 56.9977C51.7963 50.9924 60.4347 38.2914 76.2054 30.7283C103.815 17.4776 130.033 31.1132 133.833 33.172C135.14 31.1254 144.235 17.4104 161.221 15.4554C180.871 13.1889 193.492 28.6329 194.565 29.9463C198.411 25.0285 211.579 9.44401 234.277 4.44672C248.063 1.46344 262.367 2.95242 275.358 8.72313C277.007 7.62959 301.034 -7.72882 324.998 5.05764C338.823 12.4375 345.128 25.2178 347.193 29.9463C348.391 28.4068 359.894 14.1358 378.061 15.4432C392.052 16.4451 400.673 26.0304 402.596 28.2724C417.151 17.2759 435.312 18.3084 445.389 28.8833C454.546 38.5297 453.673 52.6052 453.491 54.9939C486.168 54.4502 507.804 82.5889 504.705 105.248C502.423 122.024 486.344 137.284 465.336 140.681C463.362 155.001 454.364 167.03 441.942 171.838C427.992 177.232 412.016 172.638 402.002 160.23C401.209 163.828 396.742 182.62 379.75 193.22C364.436 202.768 344.842 201.986 328.969 191.387C321.932 199.935 313.145 206.626 303.293 210.936C272.482 224.175 243.474 207.588 238.819 204.827C232.19 208.584 225.074 211.261 217.707 212.769C188.083 218.774 163.822 203.477 156.086 198.107C153.273 199.591 138.209 207.21 120.71 200.551C111.307 196.889 103.288 190.02 97.8871 181.001C89.0432 184.838 82.1964 184.056 78.79 183.286C63.2248 179.889 50.7122 162.845 47.9221 140.522C27.3244 144.591 8.17026 134.065 2.0309 117.466C-5.80307 96.3162 11.4111 75.8383 13.4424 73.4924Z" fill="white" fill-opacity="0.7"/>
</svg>
