<svg width="375" height="198" viewBox="0 0 375 198" fill="none" xmlns="http://www.w3.org/2000/svg">
<path d="M332.504 52.7284C331.778 50.0589 323.164 20.3565 294.08 10.0876C272.429 2.44151 248.027 8.59229 231.364 25.8589C228.906 22.5703 213.151 2.17282 185.591 0.157602C152.712 -2.24897 132.404 23.6684 130.782 25.8589C127.656 24.3168 109.307 15.6777 88.408 24.1065C70.7849 31.2094 62.7355 45.8533 60.7183 49.8078C24.1425 52.3545 -1.31598 78.2077 0.0526123 103.436C0.993103 120.843 14.6466 136.918 34.1572 145.603C41.9406 171.305 63.6631 189.453 88.408 191.165C120.521 193.384 140.2 166.731 141.517 164.879C158.673 192.117 187.822 203.782 210.453 195.254C227.2 188.945 235.477 173.431 238.142 167.8C259.949 185.686 288.735 187 307.642 172.473C325.771 158.547 327.711 135.545 327.983 131.585C352.177 132.817 373.134 115.813 374.308 94.0899C375.482 72.3665 356.613 53.7389 332.504 52.7284Z" fill="white" fill-opacity="0.9"/>
</svg>
