<svg xmlns="http://www.w3.org/2000/svg" viewBox="0 0 799.39 120.75"><title>qq</title><g id="Layer_2" data-name="Layer 2"><g id="Layer_1-2" data-name="Layer 1"><path d="M40.7,74.61a29.11,29.11,0,0,1-8.2,1,31.71,31.71,0,0,1-16.65-5.1,32.8,32.8,0,0,1-11.3-12.3A39.52,39.52,0,0,1,.1,41.91a50.3,50.3,0,0,1,.75-12.4,45.46,45.46,0,0,1,4-11.75,31,31,0,0,1,8-10A32.82,32.82,0,0,1,25,1.41,26.69,26.69,0,0,1,34.1,0a31.71,31.71,0,0,1,16.7,4.9A32.66,32.66,0,0,1,62.25,17.06,40.17,40.17,0,0,1,67,33.31q1,14.7-5.4,25.9a141,141,0,0,1,10.8,9.95Q78.2,75,86.25,83.61T98.8,96.71a59.27,59.27,0,0,0,26.9,15.5q13.3,3.69,20.8.4,7.2-3.21,3.5-11.5l1.45.25a10.84,10.84,0,0,1,2.7,1.1,7.57,7.57,0,0,1,2.85,2.35,5.88,5.88,0,0,1,.95,2.8,8.44,8.44,0,0,1-.4,3.35,9.62,9.62,0,0,1-2.2,3.55,16,16,0,0,1-4.25,3.2q-7.09,3.69-16.75,2.9a67.89,67.89,0,0,1-19.85-5,102,102,0,0,1-19.7-10.75,291.94,291.94,0,0,1-42.3-35.6A33,33,0,0,1,40.7,74.61ZM39.4,9.81a15.32,15.32,0,0,0-7.1-1.2q-4.59.3-8.4,4.65a29.8,29.8,0,0,0-5.85,11.25,49.16,49.16,0,0,0-1.95,14.6,42.63,42.63,0,0,0,4,18.25Q23.91,65,30.4,66.91a15.82,15.82,0,0,0,3.1.3q6.6-.1,11.2-6.5-3.6-4.2-6.4-8.2-4.59-6.51-5.7-11c-.73-3-.71-5,0-5.95a2.52,2.52,0,0,1,2.75-1.05c.27.06.44.45.5,1.15A18.23,18.23,0,0,0,36.75,39a15.52,15.52,0,0,0,2.65,4.7,20.13,20.13,0,0,0,1.55,2,19.84,19.84,0,0,0,2.8,2.15,41.54,41.54,0,0,0,5.35,3,54.16,54.16,0,0,0,2-15A38.75,38.75,0,0,0,48,19.66Q44.8,12.7,39.4,9.81Z"/><path d="M121.8,63.31a10.34,10.34,0,0,1-.7,4.55,10.31,10.31,0,0,1-3.2,3.75,18.58,18.58,0,0,1-8.55,3.45,42.27,42.27,0,0,1-10.25.6,32.7,32.7,0,0,1-8-1.45Q86.3,72.5,84.25,70a6.87,6.87,0,0,1-1.75-5.2q.21-6,.2-16.25A158.16,158.16,0,0,0,82,31.91a7.54,7.54,0,0,0-1.45-3.85,4.74,4.74,0,0,0-2.15-1.75l-1-.3a3.48,3.48,0,0,1,1.45-2,4.93,4.93,0,0,1,3.05-.25,48,48,0,0,0,11.1.1,6.8,6.8,0,0,1,3.75.15,2.5,2.5,0,0,1,1.35,2.15,1.06,1.06,0,0,0-.5-.1,6.32,6.32,0,0,0-1,.15,3.77,3.77,0,0,0-1.4.6,4.29,4.29,0,0,0-1.25,1.7,8.11,8.11,0,0,0-.7,3.05q-1.1,11.3.2,30.4a2.17,2.17,0,0,0,.1.4q.41,5.79,9.3,5.2,1.5-.1,2.7-.3a8.32,8.32,0,0,0,2-.6l1.5-.7a2.7,2.7,0,0,0,1.1-1c.3-.44.54-.75.7-1a2.62,2.62,0,0,0,.4-1.15,5.61,5.61,0,0,1,.25-1.05,3.69,3.69,0,0,0,.15-1.1c0-.6,0-.94,0-1q.81-19.2-.2-28.1a7.87,7.87,0,0,0-1.45-3.9A4.71,4.71,0,0,0,107.9,26l-1-.2a3.48,3.48,0,0,1,1.45-1.95,4.93,4.93,0,0,1,3.05-.25,44,44,0,0,0,11,0,7.78,7.78,0,0,1,3.75.2,2.38,2.38,0,0,1,1.35,2.1,3.64,3.64,0,0,1-.5-.05,3.2,3.2,0,0,0-1,.1,3.31,3.31,0,0,0-1.4.65,4.88,4.88,0,0,0-1.25,1.7,7.71,7.71,0,0,0-.7,3q-.5,5.7-.6,17.75T121.8,63.31Z"/><path d="M154.7,62.11a5.76,5.76,0,0,1-3.85-1.75,4.78,4.78,0,0,1-1.45-3.25,8.34,8.34,0,0,1,.5-3,8.27,8.27,0,0,1,7.2-3.8,23.63,23.63,0,0,1,3.9.5q-2.49-6.7-5.2-13c-.4-1.14-.78-1.67-1.15-1.6s-1,.93-1.75,2.6v.1q-1.5,3.5-5.65,13.05T142,64.21a6.36,6.36,0,0,0-.6,2.45,3.64,3.64,0,0,0,.35,1.7,3.14,3.14,0,0,0,1.05,1.1,8.92,8.92,0,0,0,1.3.7,5.85,5.85,0,0,0,1.4.35c.54.06.87.1,1,.1h.4c-.93,2.4-2.5,3.46-4.7,3.2a59.79,59.79,0,0,0-11.9-.5,2.33,2.33,0,0,1-2.1-.6,2.74,2.74,0,0,1-.8-2H128a9.91,9.91,0,0,0,1.3-.15,8.36,8.36,0,0,0,1.9-.55,7.56,7.56,0,0,0,2-1.4,9,9,0,0,0,1.9-2.5q6.3-11.51,13.8-31.2v-.2a9.41,9.41,0,0,0,.4-2.6,11.1,11.1,0,0,0-.15-2,4.58,4.58,0,0,0-.55-1.5,4.67,4.67,0,0,0-.8-1.1,2.73,2.73,0,0,0-1.05-.65l-1-.4a2.86,2.86,0,0,0-.9-.2c-.36,0-.56-.05-.6-.05H144A6,6,0,0,1,147.8,23a11.12,11.12,0,0,1,6-.45,11.25,11.25,0,0,1,4.1,1.6,14.37,14.37,0,0,1,3.15,2.6,18.09,18.09,0,0,1,2.4,3.5,33.53,33.53,0,0,1,1.75,3.6q.6,1.5,1.35,3.6c.5,1.4.89,2.36,1.15,2.9q2.51,5.89,5.65,14.2t5,12.5c1.4,3.06,3,4.4,4.9,4-1,2.4-3.06,3.36-6.2,2.9a39.14,39.14,0,0,0-5.05-.5c-1,0-2.85.13-5.45.4q-2.9.39-4.1-2.7a1,1,0,0,1,.3,0c.14,0,.4.06.8.1a6.11,6.11,0,0,0,1.05,0,7.14,7.14,0,0,0,1.1-.25,1.26,1.26,0,0,0,.85-.65,7.92,7.92,0,0,0,.4-1.15,2.91,2.91,0,0,0-.2-1.8c-.66-2-1.26-3.74-1.8-5.2a21.07,21.07,0,0,0-2.7-5.8c-.73-.87-2-1.24-3.9-1.1-3.2.06-4.46,2-3.8,5.8Z"/><path d="M184.9,70.51a2.16,2.16,0,0,1,.4,0,5.36,5.36,0,0,0,1,0,3.09,3.09,0,0,0,1.25-.35,3.16,3.16,0,0,0,1.1-1.25,5.32,5.32,0,0,0,.65-2.35q.81-7.8,1-17.4a150.8,150.8,0,0,0-.6-17.9,8.43,8.43,0,0,0-.75-2.55,5.32,5.32,0,0,0-1.15-1.7,5.8,5.8,0,0,0-1.25-.9,5.51,5.51,0,0,0-1-.45l-.4-.1a3.24,3.24,0,0,1,1.45-1.8,5.61,5.61,0,0,1,3-.3,71.3,71.3,0,0,0,12.9.1,1.57,1.57,0,0,1,.5-.1c.94-.07,2.62-.17,5.05-.3s3.95-.2,4.55-.2,1.67,0,3.2.1a11.42,11.42,0,0,1,3.25.45c.64.23,1.45.58,2.45,1.05a14.18,14.18,0,0,1,2.9,1.8,12.1,12.1,0,0,1,4.3,6.9,21.44,21.44,0,0,1,.6,8.15A20.46,20.46,0,0,1,227.5,48q-4,8.49-13.5,5a4.14,4.14,0,0,0,.1.65,4.83,4.83,0,0,0,1.3,1.6,12.55,12.55,0,0,0,3.4,2.15,37.6,37.6,0,0,1,8,5.3,91.64,91.64,0,0,1,7.7,7q3.21,3.3,9.5,9.9t9.3,9.8a41.11,41.11,0,0,0,20.4,11.2q10,2.19,14.3-1,3.11-2.51,1-7.2a6.12,6.12,0,0,1,4.8,2.6,5,5,0,0,1-.45,5.9,9.55,9.55,0,0,1-3.55,3,20.3,20.3,0,0,1-11.7,2.1,48.82,48.82,0,0,1-13.8-3.45A68.72,68.72,0,0,1,250.5,95a232.84,232.84,0,0,1-21.85-17.4,116.42,116.42,0,0,1-17.45-19A23.63,23.63,0,0,1,207.25,51c-.5-2.1-.48-3.49.05-4.15a1.71,1.71,0,0,1,1.9-.7q.21.09.45,1a2.82,2.82,0,0,0,1.25,1.6,4.6,4.6,0,0,0,3.2.25c1.34-.27,2.4-1.45,3.2-3.55a20,20,0,0,0,1.2-7.15,12.44,12.44,0,0,0-.85-4.9,5.94,5.94,0,0,0-2.45-2.95,12.57,12.57,0,0,0-2.95-1.35,17.67,17.67,0,0,0-3.15-.6,6.13,6.13,0,0,0-6,2.9q-2.29,3.3-2.7,9.3a1.09,1.09,0,0,1-.1.5,229.22,229.22,0,0,0,1.1,24.9,6.42,6.42,0,0,0,1.35,3.7,2.6,2.6,0,0,0,2.05,1l.9-.2a4.3,4.3,0,0,1-2,2.45,5.94,5.94,0,0,1-3.6.25,34.74,34.74,0,0,0-5.3-.45q-1.59,0-5.7.45C187.1,73.51,185.7,72.57,184.9,70.51Z"/><path d="M251.8,62.11A5.76,5.76,0,0,1,248,60.36a4.78,4.78,0,0,1-1.45-3.25,8.34,8.34,0,0,1,.5-3,8.27,8.27,0,0,1,7.2-3.8,23.63,23.63,0,0,1,3.9.5q-2.49-6.7-5.2-13c-.4-1.14-.78-1.67-1.15-1.6s-.95.93-1.75,2.6v.1q-1.5,3.5-5.65,13.05T239.1,64.21a6.36,6.36,0,0,0-.6,2.45,3.64,3.64,0,0,0,.35,1.7,3.14,3.14,0,0,0,1.05,1.1,8.92,8.92,0,0,0,1.3.7,5.85,5.85,0,0,0,1.4.35c.54.06.87.1,1,.1h.4c-.93,2.4-2.5,3.46-4.7,3.2a59.79,59.79,0,0,0-11.9-.5,2.33,2.33,0,0,1-2.1-.6,2.74,2.74,0,0,1-.8-2h.55a9.91,9.91,0,0,0,1.3-.15,8.36,8.36,0,0,0,1.9-.55,7.56,7.56,0,0,0,2.05-1.4,9,9,0,0,0,1.9-2.5q6.3-11.51,13.8-31.2v-.2a9.41,9.41,0,0,0,.4-2.6,11.1,11.1,0,0,0-.15-2,4.58,4.58,0,0,0-.55-1.5,4.67,4.67,0,0,0-.8-1.1,2.73,2.73,0,0,0-1.05-.65l-1-.4a2.86,2.86,0,0,0-.9-.2c-.36,0-.56-.05-.6-.05h-.25A6,6,0,0,1,244.9,23a11.12,11.12,0,0,1,6-.45,11.25,11.25,0,0,1,4.1,1.6,14.37,14.37,0,0,1,3.15,2.6,18.09,18.09,0,0,1,2.4,3.5,33.53,33.53,0,0,1,1.75,3.6q.6,1.5,1.35,3.6c.5,1.4.89,2.36,1.15,2.9q2.51,5.89,5.65,14.2T275.4,67c1.4,3.06,3,4.4,4.9,4-1,2.4-3.06,3.36-6.2,2.9a39.14,39.14,0,0,0-5.05-.5c-1,0-2.85.13-5.45.4q-2.89.39-4.1-2.7a1,1,0,0,1,.3,0c.14,0,.4.06.8.1a6.11,6.11,0,0,0,1,0,7.14,7.14,0,0,0,1.1-.25,1.26,1.26,0,0,0,.85-.65,7.92,7.92,0,0,0,.4-1.15,2.91,2.91,0,0,0-.2-1.8c-.66-2-1.26-3.74-1.8-5.2a21.07,21.07,0,0,0-2.7-5.8c-.73-.87-2-1.24-3.9-1.1-3.2.06-4.46,2-3.8,5.8Z"/><path d="M284.1,70.91c0-.07.18-.07.55,0a3.61,3.61,0,0,0,1.45-.15,12.27,12.27,0,0,0,1.75-.65,3.46,3.46,0,0,0,1.45-1.4,4.8,4.8,0,0,0,.6-2.5q.11-4-.3-35.4-1.1-5.2-5-5.3a3,3,0,0,1,1.25-1.8,4.58,4.58,0,0,1,2.75-.3,35.94,35.94,0,0,0,9.6.1,10.8,10.8,0,0,1,1.4-.1,3.48,3.48,0,0,1,2.6.1q1.6.9,3.55,5.65t4.8,12.05a104.92,104.92,0,0,0,5.55,12.2q1.31,2.3,2.7,5,.1-5.31-.15-15.95t-.25-10.85a7.25,7.25,0,0,0-.6-3.15,4,4,0,0,0-1.4-1.75,6.65,6.65,0,0,0-1.55-.75,2.73,2.73,0,0,0-1.35-.15h-.6A3.6,3.6,0,0,1,314.25,24a3.79,3.79,0,0,1,2.65-.25,34.26,34.26,0,0,0,9.7,0q5-.71,5.3,2c-.2-.07-.42-.14-.65-.2a3.57,3.57,0,0,0-1.25,0,3,3,0,0,0-1.6.65,4.85,4.85,0,0,0-1.3,2.05,10.65,10.65,0,0,0-.6,3.9q-.19,20,.2,34.6c.07,1.73.7,2.86,1.9,3.4a7.88,7.88,0,0,0,4.6-1.3c.27-.14.37-.1.3.1a3.83,3.83,0,0,1-.4,1.2,9.6,9.6,0,0,1-3.2,4.45,7.72,7.72,0,0,1-4.45,1.6,14.13,14.13,0,0,1-4.45-.6,10.92,10.92,0,0,1-3.5-1.75q-2.4-1.71-5.65-8.55l-7.3-15.4a71.39,71.39,0,0,0-7.65-13.15q-.11,12.39.1,29.4a4.78,4.78,0,0,0,.65,2.55,3.78,3.78,0,0,0,1.45,1.45,10.14,10.14,0,0,0,1.7.65,3.61,3.61,0,0,0,1.45.15c.37-.07.58-.07.65,0a3.8,3.8,0,0,1-5,2.7,44.63,44.63,0,0,0-4.7-.55,40.55,40.55,0,0,0-5.1.35A3.41,3.41,0,0,1,284.1,70.91Z"/><path d="M347.1,70.81a2.16,2.16,0,0,1,.4,0,5.34,5.34,0,0,0,1,0,3.13,3.13,0,0,0,1.25-.35,3.24,3.24,0,0,0,1.1-1.25,5.46,5.46,0,0,0,.65-2.35q.79-7.8.95-17.4t-.55-17.9v-.1a3,3,0,0,0-2.35-2.05,5.26,5.26,0,0,0-3.9.7,6.09,6.09,0,0,0-2.85,3.75,7.27,7.27,0,0,0,.75,7.55c.43.5.72.75.85.75q-4.09,1.09-6.1-4.7a21.45,21.45,0,0,1-1.05-4.85c-.23-2-.45-3.57-.65-4.8s-.53-2-1-2.25l1.5-2.2a28,28,0,0,0,3.55.55q1.75.15,2.85.15c.73,0,1.75,0,3.05-.05s2.38,0,3.25,0h.4l5.65-.1q4.95-.11,6.85,0a20.07,20.07,0,0,1,2.5.1c.73,0,1.78,0,3.15,0s2.4.05,3.1.05,1.65-.05,2.85-.15a31.54,31.54,0,0,0,3.7-.55l1.6,2.2c-.53.26-.9,1-1.1,2.25s-.42,2.83-.65,4.8a21.45,21.45,0,0,1-1.05,4.85q-2.1,5.79-6.5,4.7l.45-.25a4.22,4.22,0,0,0,.8-.85,5.45,5.45,0,0,0,.85-1.55,7.54,7.54,0,0,0,.3-2.4,9.72,9.72,0,0,0-.6-3.25,6.44,6.44,0,0,0-3-3.75,5.7,5.7,0,0,0-4-.75,2.47,2.47,0,0,0-2.2,2,171.55,171.55,0,0,0-.3,17.85q.3,9.75,1,17.15a8.92,8.92,0,0,0,.7,2.75,3.12,3.12,0,0,0,1.1,1.4,3.7,3.7,0,0,0,1.15.45,6.15,6.15,0,0,0,.95.1,1.31,1.31,0,0,0,.4-.2,4.34,4.34,0,0,1-2,2.45,6,6,0,0,1-3.6.25c-2.47-.34-4.23-.52-5.3-.55a49.85,49.85,0,0,0-5.7.35A3.7,3.7,0,0,1,347.1,70.81Z"/><path d="M381.3,70.61a2.16,2.16,0,0,1,.4,0,5.34,5.34,0,0,0,1,0,3.18,3.18,0,0,0,1.25-.35,3.32,3.32,0,0,0,1.1-1.25,5.6,5.6,0,0,0,.65-2.35q.8-7.8,1-17.4a155.17,155.17,0,0,0-.6-17.9,8.43,8.43,0,0,0-.75-2.55,5.49,5.49,0,0,0-1.15-1.7,6.05,6.05,0,0,0-1.25-.9,5.51,5.51,0,0,0-.95-.45,1.55,1.55,0,0,0-.4-.1,3.16,3.16,0,0,1,1.45-1.8,5.6,5.6,0,0,1,3.05-.3,45.44,45.44,0,0,0,10.8.1,7.81,7.81,0,0,1,3.75.2,2.32,2.32,0,0,1,1.35,2,3.64,3.64,0,0,1-.5-.05,3.2,3.2,0,0,0-1.05.1,3.7,3.7,0,0,0-1.4.6,4,4,0,0,0-1.2,1.6,9,9,0,0,0-.75,2.95,170,170,0,0,0-.3,17.8q.3,9.8,1.1,17.3a5.79,5.79,0,0,0,1.3,3.7,2.63,2.63,0,0,0,2,1l.9-.2a4.34,4.34,0,0,1-2,2.45,6,6,0,0,1-3.6.25A35.8,35.8,0,0,0,391,73q-1.8,0-5.8.45a3.28,3.28,0,0,1-2.4-.45A4.83,4.83,0,0,1,381.3,70.61Z"/><path d="M406,70.91c0-.07.18-.07.55,0a3.62,3.62,0,0,0,1.45-.15,12.27,12.27,0,0,0,1.75-.65,3.46,3.46,0,0,0,1.45-1.4,4.8,4.8,0,0,0,.6-2.5q.1-4-.3-35.4-1.1-5.2-5-5.3a3,3,0,0,1,1.25-1.8,4.58,4.58,0,0,1,2.75-.3,35.94,35.94,0,0,0,9.6.1,10.8,10.8,0,0,1,1.4-.1,3.48,3.48,0,0,1,2.6.1c1.06.6,2.25,2.48,3.55,5.65s2.9,7.18,4.8,12.05A104.92,104.92,0,0,0,438,53.41q1.31,2.3,2.7,5,.1-5.31-.15-15.95t-.25-10.85a7.25,7.25,0,0,0-.6-3.15,4,4,0,0,0-1.4-1.75,6.65,6.65,0,0,0-1.55-.75,2.73,2.73,0,0,0-1.35-.15h-.6A3.6,3.6,0,0,1,436.15,24a3.79,3.79,0,0,1,2.65-.25,34.26,34.26,0,0,0,9.7,0q5-.71,5.3,2c-.2-.07-.42-.14-.65-.2a3.58,3.58,0,0,0-1.25,0,3,3,0,0,0-1.6.65,4.85,4.85,0,0,0-1.3,2.05,10.65,10.65,0,0,0-.6,3.9q-.19,20,.2,34.6c.06,1.73.7,2.86,1.9,3.4a7.88,7.88,0,0,0,4.6-1.3c.27-.14.37-.1.3.1a3.83,3.83,0,0,1-.4,1.2,9.6,9.6,0,0,1-3.2,4.45,7.74,7.74,0,0,1-4.45,1.6,14.13,14.13,0,0,1-4.45-.6,10.92,10.92,0,0,1-3.5-1.75q-2.4-1.71-5.65-8.55l-7.3-15.4a71.39,71.39,0,0,0-7.65-13.15q-.1,12.39.1,29.4a4.78,4.78,0,0,0,.65,2.55A3.78,3.78,0,0,0,421,70.11a10.14,10.14,0,0,0,1.7.65,3.61,3.61,0,0,0,1.45.15c.37-.07.58-.07.65,0a3.8,3.8,0,0,1-5,2.7,44.63,44.63,0,0,0-4.7-.55,40.44,40.44,0,0,0-5.1.35A3.41,3.41,0,0,1,406,70.91Z"/><path d="M456.4,71.21a5.07,5.07,0,0,0,4.25-.95c1.3-1,2.21-3.05,2.75-6.25q1.29-8.51,1.3-27,0-5.31-1.65-8.25a4.06,4.06,0,0,0-4.95-2.15,1.33,1.33,0,0,1,0-.4,3.53,3.53,0,0,1,.35-.75,2.92,2.92,0,0,1,.8-.95,3.76,3.76,0,0,1,1.5-.65,6.1,6.1,0,0,1,2.4-.05q3.6.39,18.5.2l13.9-.7q-1.11,2.6.8,7.3a6,6,0,0,0,1.25,1.9A10.08,10.08,0,0,0,499.3,34c.53.36,1,.68,1.35.95s.51.46.45.6c-.07.33-.35.58-.85.75a4.52,4.52,0,0,1-1.35.25h-.7a5.14,5.14,0,0,1-1.25-.2A16.24,16.24,0,0,1,494.2,35a14.54,14.54,0,0,1-3.6-2.8A11.71,11.71,0,0,0,484,28.66c-2.7-.5-4.79-.05-6.25,1.35q-2.7,2.59-2.55,7.45a9.45,9.45,0,0,0,7.85,9.8,5.6,5.6,0,0,0,4.55-.75c1.16-.87,1.45-2.3.85-4.3-.07-.47.16-.74.7-.8a6.1,6.1,0,0,1,4.5,1.4,3.71,3.71,0,0,1,1.4,2.3,5.3,5.3,0,0,1-1.9,5.5,9.69,9.69,0,0,1-6.5,1.7,19.61,19.61,0,0,1-5.1-.8c-1.94-.54-3.5-1-4.7-1.5l-1.8-.7q-.71,8.79,1,13.8a6.66,6.66,0,0,0,2.3,3.25,9.07,9.07,0,0,0,3.75,1.8,7.52,7.52,0,0,0,4.3-.4,7.93,7.93,0,0,0,3.75-3.05,42.7,42.7,0,0,1,4.9-6.15q2-2,3.6-1.35a19.23,19.23,0,0,0-2.4,8.4l-.8,8.2q-7.9-.51-15.9-.6-13.61-.1-18.5.2Q456.5,73.61,456.4,71.21Z"/><path d="M576,74.61a29.2,29.2,0,0,1-8.2,1,31.71,31.71,0,0,1-16.65-5.1,32.72,32.72,0,0,1-11.3-12.3,39.22,39.22,0,0,1-4.45-16.3,49.35,49.35,0,0,1,.75-12.4,44.72,44.72,0,0,1,4-11.75,30.69,30.69,0,0,1,8-10,32.67,32.67,0,0,1,12.2-6.35A26.65,26.65,0,0,1,569.4,0a31.73,31.73,0,0,1,16.7,4.9,32.74,32.74,0,0,1,11.45,12.15,40.32,40.32,0,0,1,4.75,16.25q1,14.7-5.4,25.9a143,143,0,0,1,10.79,9.95q5.8,5.85,13.86,14.45t12.55,13.1a59.22,59.22,0,0,0,26.9,15.5q13.29,3.69,20.8.4,7.2-3.21,3.5-11.5l1.45.25a11,11,0,0,1,2.69,1.1,7.69,7.69,0,0,1,2.86,2.35,6,6,0,0,1,1,2.8,8.62,8.62,0,0,1-.4,3.35,9.76,9.76,0,0,1-2.2,3.55,16.15,16.15,0,0,1-4.25,3.2q-7.11,3.69-16.75,2.9a67.81,67.81,0,0,1-19.85-5,101.68,101.68,0,0,1-19.7-10.75,290.86,290.86,0,0,1-42.3-35.6A33.07,33.07,0,0,1,576,74.61Zm-1.31-64.8a15.3,15.3,0,0,0-7.09-1.2q-4.61.3-8.41,4.65a29.65,29.65,0,0,0-5.84,11.25,48.52,48.52,0,0,0-2,14.6,42.34,42.34,0,0,0,4,18.25q3.79,7.65,10.29,9.55a15.85,15.85,0,0,0,3.11.3q6.59-.1,11.2-6.5-3.6-4.2-6.4-8.2-4.61-6.51-5.7-11c-.74-3-.72-5,0-5.95a2.52,2.52,0,0,1,2.75-1.05c.27.06.44.45.5,1.15a18.48,18.48,0,0,0,.86,3.35,15.48,15.48,0,0,0,2.64,4.7,20,20,0,0,0,1.56,2,18.67,18.67,0,0,0,2.8,2.15,40.23,40.23,0,0,0,5.35,3,54.54,54.54,0,0,0,2-15,38.75,38.75,0,0,0-3.15-16.15Q580.1,12.7,574.69,9.81Z"/><path d="M657.1,63.31a10.48,10.48,0,0,1-.71,4.55,10.31,10.31,0,0,1-3.2,3.75,18.58,18.58,0,0,1-8.55,3.45,42.24,42.24,0,0,1-10.25.6,32.7,32.7,0,0,1-8-1.45q-4.8-1.71-6.85-4.2a6.91,6.91,0,0,1-1.75-5.2q.21-6,.2-16.25a158.16,158.16,0,0,0-.7-16.65,7.53,7.53,0,0,0-1.44-3.85,4.81,4.81,0,0,0-2.16-1.75l-1-.3a3.48,3.48,0,0,1,1.45-2,4.93,4.93,0,0,1,3.05-.25,48,48,0,0,0,11.1.1,6.8,6.8,0,0,1,3.75.15,2.5,2.5,0,0,1,1.35,2.15,1,1,0,0,0-.5-.1,6.24,6.24,0,0,0-1,.15,3.81,3.81,0,0,0-1.41.6,4.38,4.38,0,0,0-1.25,1.7,8.11,8.11,0,0,0-.7,3.05q-1.1,11.3.2,30.4a2.17,2.17,0,0,0,.1.4q.4,5.79,9.31,5.2c1-.07,1.89-.17,2.69-.3a8.41,8.41,0,0,0,2.06-.6l1.5-.7a2.74,2.74,0,0,0,1.09-1c.3-.44.54-.75.7-1a2.62,2.62,0,0,0,.4-1.15,5.61,5.61,0,0,1,.25-1.05,3.69,3.69,0,0,0,.15-1.1c0-.6,0-.94,0-1q.81-19.2-.2-28.1a7.87,7.87,0,0,0-1.44-3.9,4.78,4.78,0,0,0-2.16-1.8l-1-.2a3.48,3.48,0,0,1,1.45-1.95,4.93,4.93,0,0,1,3.05-.25,44,44,0,0,0,11,0,7.78,7.78,0,0,1,3.75.2,2.38,2.38,0,0,1,1.35,2.1,3.64,3.64,0,0,1-.5-.05,3.8,3.8,0,0,0-2.44.75,4.65,4.65,0,0,0-1.25,1.7,7.53,7.53,0,0,0-.71,3q-.5,5.7-.6,17.75T657.1,63.31Z"/><path d="M665.69,71.21a5.07,5.07,0,0,0,4.25-.95q1.95-1.45,2.75-6.25,1.3-8.51,1.3-27,0-5.31-1.65-8.25a4.06,4.06,0,0,0-5-2.15,1.75,1.75,0,0,1,.05-.4,4.15,4.15,0,0,1,.35-.75,3.05,3.05,0,0,1,.8-.95,3.9,3.9,0,0,1,1.5-.65,6.11,6.11,0,0,1,2.4-.05q3.6.39,18.5.2l13.9-.7q-1.1,2.6.8,7.3a6.31,6.31,0,0,0,1.25,1.9A11,11,0,0,0,708.59,34c.54.36,1,.68,1.35.95s.52.46.45.6c-.06.33-.35.58-.85.75a4.52,4.52,0,0,1-1.35.25h-.7a5.22,5.22,0,0,1-1.25-.2,16.62,16.62,0,0,1-2.75-1.3,14.92,14.92,0,0,1-3.6-2.8,11.68,11.68,0,0,0-6.65-3.55Q689.19,27.91,687,30q-2.7,2.59-2.55,7.45a9.45,9.45,0,0,0,7.85,9.8,5.59,5.59,0,0,0,4.55-.75q1.75-1.3.85-4.3c-.06-.47.17-.74.7-.8a6.08,6.08,0,0,1,4.5,1.4,3.67,3.67,0,0,1,1.4,2.3,5.28,5.28,0,0,1-1.9,5.5,9.66,9.66,0,0,1-6.5,1.7,19.73,19.73,0,0,1-5.1-.8q-2.89-.81-4.7-1.5l-1.8-.7q-.69,8.79,1,13.8a6.72,6.72,0,0,0,2.3,3.25,9.18,9.18,0,0,0,3.75,1.8,7.51,7.51,0,0,0,4.3-.4,7.93,7.93,0,0,0,3.75-3.05,44.14,44.14,0,0,1,4.9-6.15q2-2,3.6-1.35a19.5,19.5,0,0,0-2.4,8.4l-.8,8.2q-7.89-.51-15.9-.6-13.59-.1-18.5.2Q665.79,73.61,665.69,71.21Z"/><path d="M750.29,23.81a5.27,5.27,0,0,1-.4.85,21.84,21.84,0,0,1-1.35,1.95,11.15,11.15,0,0,1-2.45,2.4,14.4,14.4,0,0,1-4,1.8,17.26,17.26,0,0,1-5.6.7,11.45,11.45,0,0,1-4.8-1.35c-1.6-.84-2.86-1.54-3.8-2.1s-1.63-.69-2.1-.35a2.45,2.45,0,0,0-1,1.75,3.54,3.54,0,0,0,.7,2.25,16.3,16.3,0,0,0,2,2.4,31.62,31.62,0,0,0,3,2.55c1.17.9,2.29,1.71,3.35,2.45s2.2,1.5,3.4,2.3a51.56,51.56,0,0,1,9.55,7.6,21.3,21.3,0,0,1,5.55,8.5q3.9,12-6.5,17.4a24.4,24.4,0,0,1-9.8,2.85,22.26,22.26,0,0,1-9.1-1.1,28,28,0,0,1-7.1-3.75,14.5,14.5,0,0,1-4.45-5,5.88,5.88,0,0,1-.55-4.8,7.72,7.72,0,0,1,1.7-3,5.66,5.66,0,0,1,2.1-1.5,7.19,7.19,0,0,1,2.15-.4,10.17,10.17,0,0,1,1.6,0,1.88,1.88,0,0,1,.65.15,5,5,0,0,0-.15.85c0,.36,0,1.05,0,2.05a17.16,17.16,0,0,0,.35,2.9,9.74,9.74,0,0,0,1.3,3A9,9,0,0,0,727,69.86a12.53,12.53,0,0,0,4.3,1.65,22.14,22.14,0,0,0,6.45.3q4.8-.51,4.8-4.5.1-5.2-6.8-11.2a25.21,25.21,0,0,0-3.3-2.6q-3.9-2.7-6.6-4.85a47.13,47.13,0,0,1-5.3-5,18.22,18.22,0,0,1-3.6-5.4,10.4,10.4,0,0,1-.5-5.55,12.27,12.27,0,0,1,3-5.9,14.36,14.36,0,0,1,3.8-3.15,22.54,22.54,0,0,1,3.9-1.9,20,20,0,0,1,3.85-.85q2.25-.3,2.55-.3h1.1a6.62,6.62,0,0,0,2.95,2.75,11,11,0,0,0,4.05,1.1,28,28,0,0,0,4.1,0A19.72,19.72,0,0,0,749,24Z"/><path d="M766.89,70.81a2.16,2.16,0,0,1,.4,0,5.34,5.34,0,0,0,1,0,3.13,3.13,0,0,0,1.25-.35,3.24,3.24,0,0,0,1.1-1.25,5.46,5.46,0,0,0,.65-2.35q.8-7.8,1-17.4t-.55-17.9v-.1a3,3,0,0,0-2.35-2.05,5.26,5.26,0,0,0-3.9.7,6.09,6.09,0,0,0-2.85,3.75,7.27,7.27,0,0,0,.75,7.55c.43.5.72.75.85.75q-4.1,1.09-6.1-4.7A21.45,21.45,0,0,1,757,32.66c-.23-2-.45-3.57-.65-4.8s-.53-2-1-2.25l1.5-2.2a28,28,0,0,0,3.55.55q1.75.15,2.85.15c.73,0,1.75,0,3.05-.05s2.38,0,3.25,0h.4l5.65-.1q5-.11,6.85,0a20.07,20.07,0,0,1,2.5.1c.73,0,1.78,0,3.15,0s2.4.05,3.1.05,1.65-.05,2.85-.15a31.54,31.54,0,0,0,3.7-.55l1.6,2.2c-.53.26-.9,1-1.1,2.25s-.42,2.83-.65,4.8a21.45,21.45,0,0,1-1,4.85q-2.1,5.79-6.5,4.7l.45-.25a4.22,4.22,0,0,0,.8-.85,5.45,5.45,0,0,0,.85-1.55,7.54,7.54,0,0,0,.3-2.4,9.72,9.72,0,0,0-.6-3.25,6.44,6.44,0,0,0-3-3.75,5.7,5.7,0,0,0-4-.75,2.47,2.47,0,0,0-2.2,2,171.55,171.55,0,0,0-.3,17.85q.3,9.75,1,17.15a8.92,8.92,0,0,0,.7,2.75,3.12,3.12,0,0,0,1.1,1.4,3.7,3.7,0,0,0,1.15.45,6.15,6.15,0,0,0,.95.1,1.31,1.31,0,0,0,.4-.2,4.34,4.34,0,0,1-2,2.45,6,6,0,0,1-3.6.25c-2.47-.34-4.23-.52-5.3-.55a49.85,49.85,0,0,0-5.7.35A3.7,3.7,0,0,1,766.89,70.81Z"/></g></g></svg>