<svg width="340" height="200" viewBox="0 0 340 200" fill="none" xmlns="http://www.w3.org/2000/svg">
<g clip-path="url(#clip0)">
<path d="M38.014 53.2614C38.6738 50.565 46.4969 20.5624 72.9118 10.1898C92.5757 2.46637 114.737 8.67931 129.871 26.1204C132.104 22.7985 146.413 2.19496 171.443 0.159378C201.304 -2.27152 219.749 23.9078 221.221 26.1204C224.061 24.5627 240.726 15.8363 259.707 24.3503C275.712 31.525 283.023 46.3168 284.855 50.3113C318.074 52.8838 341.196 78.9982 339.953 104.481C339.099 122.064 326.698 138.301 308.978 147.075C301.909 173.036 282.181 191.368 259.707 193.097C230.541 195.339 212.668 168.416 211.472 166.546C195.891 194.059 169.417 205.841 148.863 197.227C133.653 190.855 126.136 175.184 123.715 169.496C103.91 187.562 77.7659 188.89 60.5939 174.216C44.1288 160.15 42.3674 136.915 42.12 132.914C20.1469 134.159 1.11332 116.984 0.047064 95.0409C-1.01919 73.098 16.1175 54.2822 38.014 53.2614Z" fill="white" fill-opacity="0.85"/>
</g>
<defs>
<clipPath id="clip0">
<rect width="340" height="200" fill="white"/>
</clipPath>
</defs>
</svg>
