<svg width="451" height="180" viewBox="0 0 451 180" fill="none" xmlns="http://www.w3.org/2000/svg">
<path d="M11.9784 61.2433C23.7436 48.5159 39.4898 47.6149 42.9929 47.4978C46.1554 42.4934 53.8531 31.9093 67.9062 25.6068C92.5093 14.5645 115.872 25.9275 119.258 27.6431C120.422 25.9377 128.527 14.5085 143.663 12.8794C161.173 10.9907 172.42 23.8606 173.376 24.9551C176.803 20.8569 188.537 7.86996 208.763 3.70558C221.048 1.21952 233.794 2.46034 245.37 7.26923C246.84 6.35795 268.25 -6.44064 289.604 4.21467C301.923 10.3645 307.542 21.0147 309.382 24.9551C310.45 23.6722 320.7 11.7798 336.888 12.8693C349.355 13.7042 357.038 21.6918 358.751 23.5602C371.721 14.3965 387.905 15.2569 396.884 24.0693C405.044 32.1079 404.266 43.8374 404.103 45.8279C433.221 45.3748 452.501 68.8237 449.74 87.7059C447.707 101.686 433.379 114.403 414.658 117.233C412.899 129.166 404.881 139.191 393.813 143.197C381.381 147.692 367.145 143.864 358.222 133.524C357.516 136.523 353.534 152.183 338.393 161.015C324.747 168.972 307.287 168.321 293.143 159.488C286.872 166.611 279.042 172.187 270.263 175.779C242.808 186.811 216.959 172.989 212.81 170.688C206.903 173.819 200.563 176.05 193.998 177.306C167.6 182.311 145.981 169.563 139.087 165.088C136.58 166.325 123.158 172.674 107.564 167.124C99.185 164.073 92.0394 158.349 87.2267 150.833C79.346 154.031 73.2448 153.379 70.2094 152.737C56.3393 149.907 45.1893 135.703 42.7031 117.101C24.3486 120.492 7.28048 111.72 1.80972 97.8878C-5.17108 80.263 10.1684 63.1982 11.9784 61.2433Z" fill="white" fill-opacity="0.85"/>
</svg>
