<svg width="402" height="161" viewBox="0 0 402 161" fill="none" xmlns="http://www.w3.org/2000/svg">
<g clip-path="url(#clip0)">
<path d="M10.701 54.7696C21.2112 43.3857 35.2778 42.5797 38.4072 42.475C41.2324 37.9988 48.109 28.532 60.6631 22.8947C82.6419 13.018 103.512 23.1816 106.537 24.7161C107.578 23.1907 114.818 12.9679 128.339 11.5108C143.982 9.82143 154.029 21.3328 154.883 22.3118C157.944 18.6462 168.427 7.0301 186.495 3.3053C197.469 1.08166 208.856 2.1915 219.198 6.49278C220.51 5.6777 239.637 -5.76994 258.713 3.76065C269.718 9.26134 274.737 18.7874 276.382 22.3118C277.335 21.1643 286.492 10.5272 300.954 11.5017C312.091 12.2485 318.954 19.393 320.484 21.0642C332.071 12.8678 346.528 13.6373 354.55 21.5195C361.84 28.7096 361.145 39.201 360.999 40.9814C387.011 40.5761 404.235 61.5498 401.768 78.4389C399.952 90.943 387.152 102.318 370.428 104.85C368.857 115.523 361.694 124.489 351.806 128.073C340.701 132.093 327.983 128.669 320.012 119.421C319.381 122.103 315.824 136.11 302.298 144.01C290.107 151.127 274.51 150.544 261.874 142.644C256.273 149.016 249.277 154.003 241.435 157.215C216.908 167.083 193.817 154.72 190.111 152.662C184.834 155.462 179.169 157.458 173.305 158.581C149.723 163.058 130.41 151.656 124.251 147.653C122.012 148.759 110.021 154.438 96.0908 149.474C88.6055 146.745 82.2221 141.625 77.9228 134.903C70.8826 137.763 65.4322 137.18 62.7206 136.606C50.33 134.074 40.3694 121.37 38.1483 104.731C21.7517 107.764 6.50414 99.918 1.61693 87.546C-4.61926 71.7816 9.084 56.5181 10.701 54.7696Z" fill="white" fill-opacity="0.75"/>
</g>
<defs>
<clipPath id="clip0">
<rect width="402" height="161" fill="white"/>
</clipPath>
</defs>
</svg>
