<svg width="291" height="100" viewBox="0 0 291 100" fill="none" xmlns="http://www.w3.org/2000/svg">
<g clip-path="url(#clip0)">
<path d="M3.66666 31.9895C8.41248 27.9398 16.2647 28.5015 20.4927 33.6415C20.771 32.6978 24.0607 22.1969 35.1616 18.5664C43.428 15.8633 52.7514 18.0378 59.1065 24.1422C60.0448 22.9795 66.0612 15.7683 76.5797 15.0558C89.1346 14.205 96.8746 23.3678 97.5045 24.1422C98.6995 23.597 105.702 20.5427 113.683 23.5226C120.412 26.0338 123.484 31.2109 124.254 32.609C132.667 26.1205 143.435 28.0266 147.12 33.6415C149.657 37.5074 148.949 43.3061 145.61 48.0971C151.406 50.9077 153.576 57.6894 150.787 62.7591C147.838 68.1284 140.135 70.1191 134.392 66.4763C131.422 75.5626 123.13 81.9788 113.683 82.5839C101.422 83.3686 93.9084 73.9457 93.4058 73.291C86.8587 82.9205 75.7298 87.0445 67.0881 84.0295C60.6963 81.7992 57.536 76.3143 56.5178 74.3236C48.1932 80.6469 37.2067 81.1115 29.9844 75.9757C23.0641 71.0525 22.3242 62.9202 22.2185 61.5201C14.9488 67.6658 5.35358 66.214 2.15662 61.5201C-0.114899 58.1829 0.605603 52.8468 3.88238 48.5101C-1.32724 43.9876 -1.19349 36.1547 3.66666 31.9895Z" fill="white" fill-opacity="0.8"/>
</g>
<g clip-path="url(#clip1)">
<path d="M128.46 26.6308C128.816 25.2826 133.026 10.2813 147.244 5.09498C157.827 1.23328 169.756 4.33975 177.901 13.0603C179.103 11.3994 186.804 1.09758 200.277 0.0797882C216.349 -1.13566 226.276 11.954 227.069 13.0603C228.597 12.2815 237.567 7.91824 247.783 12.1753C256.398 15.7626 260.333 23.1585 261.319 25.1558C279.199 26.442 291.644 39.4992 290.975 52.2407C290.515 61.0321 283.84 69.1508 274.303 73.5376C270.498 86.5181 259.88 95.6841 247.783 96.5485C232.085 97.6695 222.465 84.2082 221.822 83.273C213.435 97.0294 199.186 102.921 188.123 98.6136C179.937 95.4275 175.891 87.5919 174.588 84.748C163.928 93.7813 149.856 94.4451 140.614 87.1081C131.752 80.0751 130.804 68.4575 130.67 66.4573C118.844 67.0798 108.599 58.492 108.025 47.5206C107.451 36.5491 116.675 27.1412 128.46 26.6308Z" fill="white" fill-opacity="0.95"/>
</g>
<defs>
<clipPath id="clip0">
<rect width="152" height="70" fill="white" transform="translate(0 15)"/>
</clipPath>
<clipPath id="clip1">
<rect width="183" height="100" fill="white" transform="translate(108)"/>
</clipPath>
</defs>
</svg>
