<svg xmlns="http://www.w3.org/2000/svg" xmlns:xlink="http://www.w3.org/1999/xlink" viewBox="0 0 1650.58 906.85"><defs><style>.cls-1{fill:#ff6534;}</style></defs><title>Asset 2</title><g id="Layer_2" data-name="Layer 2"><g id="Layer_1-2" data-name="Layer 1"><rect class="cls-1" x="1608.53" y="250.46" width="26" height="52" transform="translate(701.55 1640.07) rotate(-65.67)"/><rect class="cls-1" x="1537.39" y="302.25" width="52" height="25.87" transform="translate(345.27 1344.61) rotate(-51.6)"/><rect class="cls-1" x="1504.58" y="364.03" width="52" height="25.75" transform="translate(898.76 1821.03) rotate(-80.2)"/><rect class="cls-1" x="1517.65" y="420.32" width="25.62" height="52" transform="translate(-62.55 384.55) rotate(-14.04)"/><rect class="cls-1" x="1535.94" y="489.04" width="25.5" height="52" transform="translate(-82.72 561.86) rotate(-20.04)"/><rect class="cls-1" x="1551.07" y="558.23" width="25.37" height="52" transform="translate(-71.23 247.36) rotate(-8.84)"/><rect class="cls-1" x="1528.78" y="640.84" width="52" height="25.24" transform="translate(470.3 1945.08) rotate(-72.78)"/><rect class="cls-1" x="1490.15" y="699.47" width="52" height="25.12" transform="translate(-27.65 1361.94) rotate(-47.99)"/><rect class="cls-1" x="1430.61" y="736.3" width="52" height="24.99" transform="translate(-174.6 601.98) rotate(-22.06)"/><rect class="cls-1" x="1375.46" y="729.11" width="24.86" height="52" transform="translate(553 2096.52) rotate(-86.65)"/><rect class="cls-1" x="1309.42" y="708.66" width="24.74" height="52" transform="translate(136.33 1673.57) rotate(-67.45)"/><rect class="cls-1" x="1249.71" y="669.14" width="24.61" height="52" transform="translate(-45.78 1299.78) rotate(-53.66)"/><rect class="cls-1" x="1199.67" y="618.16" width="24.49" height="52" transform="translate(-112.19 1005.3) rotate(-43.25)"/><rect class="cls-1" x="1158.58" y="560.83" width="24.36" height="52" transform="matrix(0.82, -0.58, 0.58, 0.82, -123.53, 786.44)"/><rect class="cls-1" x="1125.72" y="498.41" width="24.23" height="52" transform="translate(-113.56 585.09) rotate(-27.52)"/><rect class="cls-1" x="1095.47" y="434.74" width="24.11" height="52" transform="translate(-51.59 769.5) rotate(-37.5)"/><rect class="cls-1" x="1038.79" y="396.58" width="23.98" height="52" transform="translate(605.87 1464.11) rotate(-88.78)"/><rect class="cls-1" x="965.58" y="441.74" width="52" height="23.85" transform="translate(51.39 1006.02) rotate(-55.02)"/><rect class="cls-1" x="931.54" y="504.21" width="52" height="23.73" transform="matrix(0.32, -0.95, 0.95, 0.32, 159.52, 1255.25)"/><rect class="cls-1" x="908.68" y="570.81" width="52" height="23.6" transform="translate(163.44 1368.9) rotate(-77.49)"/><rect class="cls-1" x="890.57" y="639.34" width="52" height="23.48" transform="matrix(0.18, -0.98, 0.98, 0.18, 108.61, 1432.87)"/><rect class="cls-1" x="872.19" y="707.76" width="52" height="23.35" transform="translate(-7.38 1429.57) rotate(-76.8)"/><rect class="cls-1" x="844.13" y="772.36" width="52" height="23.22" transform="translate(-242.09 1150.99) rotate(-60.28)"/><rect class="cls-1" x="793.79" y="821.19" width="52" height="23.1" transform="translate(-337.26 669.22) rotate(-37.4)"/><rect class="cls-1" x="731.54" y="853.4" width="52" height="22.97" transform="translate(-295.46 403.28) rotate(-25.11)"/><rect class="cls-1" x="664.94" y="872.82" width="52" height="22.84" transform="translate(-204.01 207.23) rotate(-14.89)"/><rect class="cls-1" x="595.44" y="881.27" width="52" height="22.72" transform="translate(-96.8 75.86) rotate(-6.48)"/><rect class="cls-1" x="539.12" y="865.83" width="22.59" height="52" transform="translate(-343.36 1439.07) rotate(-89.8)"/><rect class="cls-1" x="468.01" y="857.63" width="22.47" height="52" transform="translate(-445.73 1277.19) rotate(-84.58)"/><rect class="cls-1" x="398.11" y="843.82" width="22.34" height="52" transform="translate(-515.88 1130.9) rotate(-80.56)"/><rect class="cls-1" x="330.17" y="817.91" width="22.21" height="52" transform="translate(-562.45 734.72) rotate(-61.09)"/><rect class="cls-1" x="293.67" y="763.53" width="22.09" height="52" transform="translate(-105.76 49.45) rotate(-7.91)"/><rect class="cls-1" x="304.42" y="715.71" width="52" height="21.96" transform="translate(-449.47 556.33) rotate(-53.23)"/><rect class="cls-1" x="356.78" y="667.06" width="52" height="21.83" transform="translate(-361.36 449.01) rotate(-43.45)"/><rect class="cls-1" x="412.48" y="623.72" width="52" height="21.71" transform="translate(-304.23 426.42) rotate(-39.7)"/><rect class="cls-1" x="470.89" y="584.12" width="52" height="21.58" transform="translate(-254.61 405.01) rotate(-35.95)"/><rect class="cls-1" x="530.48" y="546.01" width="52" height="21.46" transform="translate(-227.17 482.42) rotate(-39.6)"/><rect class="cls-1" x="579.57" y="495.76" width="52" height="21.33" transform="translate(-123.79 808.45) rotate(-62.4)"/><rect class="cls-1" x="610.67" y="413.29" width="21.2" height="52" transform="translate(-79.87 143.74) rotate(-12.41)"/><rect class="cls-1" x="575.33" y="357.46" width="21.08" height="52" transform="translate(-55.54 664.3) rotate(-56.85)"/><rect class="cls-1" x="510" y="328.24" width="20.95" height="52" transform="translate(71.14 795.24) rotate(-78.7)"/><rect class="cls-1" x="439.39" y="315.02" width="20.82" height="52" transform="matrix(0.09, -1, 1, 0.09, 69.66, 758.28)"/><rect class="cls-1" x="369.61" y="303.93" width="20.7" height="52" transform="translate(11.97 673.17) rotate(-83.98)"/><rect class="cls-1" x="300.46" y="290.2" width="20.57" height="52" transform="translate(-52.77 569.97) rotate(-80.42)"/><rect class="cls-1" x="232.79" y="270.62" width="20.45" height="52" transform="translate(-108.29 450.33) rotate(-74.3)"/><rect class="cls-1" x="167.49" y="242.57" width="20.32" height="52" transform="translate(-139.89 322.05) rotate(-66.08)"/><rect class="cls-1" x="108.36" y="204.17" width="20.19" height="52" transform="matrix(0.58, -0.82, 0.82, 0.58, -137.79, 193.46)"/><rect class="cls-1" x="60.26" y="153.65" width="20.07" height="52" transform="translate(-97.91 85.2) rotate(-39.32)"/><image width="110" height="174" transform="scale(0.83)" xlink:href="./ship.png"/></g></g></svg>