<svg id="Layer_1" data-name="Layer 1" xmlns="http://www.w3.org/2000/svg" viewBox="0 0 1604.46 753.68"><defs><style>.cls-1{fill:#ff6534;}</style></defs><title>path</title><rect class="cls-1" x="1679.53" y="238.46" width="52" height="26" transform="translate(-97.83 538.16) rotate(-22.31)"/><rect class="cls-1" x="1621.39" y="277.25" width="52" height="25.87" transform="translate(266.63 1272.79) rotate(-51.6)"/><rect class="cls-1" x="1588.58" y="339.03" width="52" height="25.75" transform="translate(863.05 1754.89) rotate(-80.2)"/><rect class="cls-1" x="1601.65" y="395.32" width="25.62" height="52" transform="translate(-184.04 276.01) rotate(-14.04)"/><rect class="cls-1" x="1619.94" y="464.04" width="25.5" height="52" transform="translate(-199.13 460.95) rotate(-20.04)"/><rect class="cls-1" x="1635.07" y="533.23" width="25.37" height="52" transform="translate(-196.44 131.8) rotate(-8.84)"/><rect class="cls-1" x="1612.78" y="615.84" width="52" height="25.24" transform="translate(423.26 1879.54) rotate(-72.78)"/><rect class="cls-1" x="1574.15" y="674.47" width="52" height="25.12" transform="translate(-111.35 1287.91) rotate(-47.99)"/><rect class="cls-1" x="1514.61" y="711.3" width="52" height="24.99" transform="translate(-289.12 503.53) rotate(-22.06)"/><rect class="cls-1" x="1459.46" y="704.11" width="24.86" height="52" transform="translate(527 2028.66) rotate(-86.65)"/><rect class="cls-1" x="1393.42" y="683.66" width="24.74" height="52" transform="translate(81.14 1607.56) rotate(-67.45)"/><rect class="cls-1" x="1333.71" y="644.14" width="24.61" height="52" transform="translate(-121.47 1229.08) rotate(-53.66)"/><rect class="cls-1" x="1283.67" y="593.16" width="24.49" height="52" transform="translate(-202.3 927.89) rotate(-43.25)"/><rect class="cls-1" x="1242.58" y="535.83" width="24.36" height="52" transform="translate(-223.59 702.3) rotate(-35.39)"/><rect class="cls-1" x="1209.72" y="473.41" width="24.23" height="52" transform="translate(-222.56 492.9) rotate(-27.52)"/><rect class="cls-1" x="1179.47" y="409.74" width="24.11" height="52" transform="translate(-149.07 687.3) rotate(-37.5)"/><rect class="cls-1" x="1122.79" y="371.58" width="23.98" height="52" transform="matrix(0.02, -1, 1, 0.02, 583.02, 1395.45)"/><rect class="cls-1" x="1049.58" y="416.74" width="52" height="23.85" transform="translate(-22.34 936) rotate(-55.02)"/><rect class="cls-1" x="1015.54" y="479.21" width="52" height="23.73" transform="translate(109.96 1189.64) rotate(-71.13)"/><rect class="cls-1" x="992.68" y="545.81" width="52" height="23.6" transform="matrix(0.22, -0.98, 0.98, 0.22, 123.59, 1303.15)"/><rect class="cls-1" x="974.57" y="614.34" width="52" height="23.48" transform="translate(71.75 1366.86) rotate(-79.44)"/><rect class="cls-1" x="956.19" y="682.76" width="52" height="23.35" transform="translate(-48.28 1363.89) rotate(-76.8)"/><rect class="cls-1" x="928.13" y="747.36" width="52" height="23.22" transform="translate(-308.08 1083.16) rotate(-60.28)"/><rect class="cls-1" x="877.79" y="796.19" width="52" height="23.1" transform="translate(-434.86 586.93) rotate(-37.4)"/><rect class="cls-1" x="815.54" y="828.4" width="52" height="22.97" transform="translate(-406.97 308.39) rotate(-25.11)"/><rect class="cls-1" x="748.94" y="847.82" width="52" height="22.84" transform="matrix(0.97, -0.26, 0.26, 0.97, -324.83, 99.8)"/><rect class="cls-1" x="679.44" y="856.27" width="52" height="22.72" transform="translate(-223.5 -42.99) rotate(-6.48)"/><rect class="cls-1" x="623.12" y="840.83" width="22.59" height="52" transform="translate(-364.72 1369.98) rotate(-89.8)"/><rect class="cls-1" x="552.01" y="832.63" width="22.47" height="52" transform="translate(-474.84 1210.01) rotate(-84.58)"/><rect class="cls-1" x="482.11" y="818.82" width="22.34" height="52" transform="translate(-551.06 1064.69) rotate(-80.56)"/><rect class="cls-1" x="414.17" y="792.91" width="22.21" height="52" transform="translate(-627.23 667.16) rotate(-61.09)"/><rect class="cls-1" x="377.67" y="738.53" width="22.09" height="52" transform="translate(-231.57 -67.4) rotate(-7.91)"/><rect class="cls-1" x="388.42" y="690.71" width="52" height="21.96" transform="translate(-525.79 485.41) rotate(-53.23)"/><rect class="cls-1" x="440.78" y="642.06" width="52" height="21.83" transform="translate(-451.21 371.75) rotate(-43.45)"/><rect class="cls-1" x="496.48" y="598.72" width="52" height="21.71" transform="translate(-398.95 346.14) rotate(-39.7)"/><rect class="cls-1" x="554.89" y="559.12" width="52" height="21.58" transform="translate(-353.99 321.38) rotate(-35.95)"/><rect class="cls-1" x="614.48" y="521.01" width="52" height="21.46" transform="translate(-322.02 402.05) rotate(-39.6)"/><rect class="cls-1" x="663.57" y="470.76" width="52" height="21.33" transform="translate(-186.61 741.3) rotate(-62.4)"/><rect class="cls-1" x="694.67" y="388.29" width="21.2" height="52" transform="translate(-202.6 33.03) rotate(-12.41)"/><rect class="cls-1" x="659.33" y="332.46" width="21.08" height="52" transform="translate(-126.6 595.13) rotate(-56.85)"/><rect class="cls-1" x="594" y="303.24" width="20.95" height="52" transform="translate(33.14 729.34) rotate(-78.7)"/><rect class="cls-1" x="523.39" y="290.02" width="20.82" height="52" transform="translate(40.94 691.02) rotate(-84.83)"/><rect class="cls-1" x="453.61" y="278.93" width="20.7" height="52" transform="translate(-18.04 606.15) rotate(-83.98)"/><rect class="cls-1" x="384.46" y="265.2" width="20.57" height="52" transform="translate(-88.16 503.79) rotate(-80.42)"/><rect class="cls-1" x="316.79" y="245.62" width="20.45" height="52" transform="translate(-153.01 384.79) rotate(-74.3)"/><rect class="cls-1" x="251.49" y="217.57" width="20.32" height="52" transform="translate(-197.16 255.8) rotate(-66.08)"/><rect class="cls-1" x="192.36" y="179.17" width="20.19" height="52" transform="matrix(0.58, -0.82, 0.82, 0.58, -212.1, 123.25)"/><rect class="cls-1" x="144.26" y="128.65" width="20.07" height="52" transform="translate(-193.12 4.59) rotate(-39.32)"/></svg>